<svg id="SvgjsSvg1006" width="1120" height="862.5" xmlns="http://www.w3.org/2000/svg" version="1.1" xmlns:xlink="http://www.w3.org/1999/xlink" xmlns:svgjs="http://svgjs.com/svgjs"><defs id="SvgjsDefs1007"><marker id="SvgjsMarker1038" markerWidth="16" markerHeight="12" refX="16" refY="6" viewBox="0 0 16 12" orient="auto" markerUnits="userSpaceOnUse"><path id="SvgjsPath1039" d="M0,2 L14,6 L0,11 L0,2" fill="#323232" stroke="#323232" stroke-width="2"></path></marker><marker id="SvgjsMarker1042" markerWidth="16" markerHeight="12" refX="16" refY="6" viewBox="0 0 16 12" orient="auto" markerUnits="userSpaceOnUse"><path id="SvgjsPath1043" d="M0,2 L14,6 L0,11 L0,2" fill="#323232" stroke="#323232" stroke-width="2"></path></marker><marker id="SvgjsMarker1062" markerWidth="16" markerHeight="12" refX="16" refY="6" viewBox="0 0 16 12" orient="auto" markerUnits="userSpaceOnUse"><path id="SvgjsPath1063" d="M0,2 L14,6 L0,11 L0,2" fill="#323232" stroke="#323232" stroke-width="2"></path></marker><marker id="SvgjsMarker1084" markerWidth="16" markerHeight="12" refX="16" refY="6" viewBox="0 0 16 12" orient="auto" markerUnits="userSpaceOnUse"><path id="SvgjsPath1085" d="M0,2 L14,6 L0,11 L0,2" fill="#323232" stroke="#323232" stroke-width="2"></path></marker><marker id="SvgjsMarker1106" markerWidth="16" markerHeight="12" refX="16" refY="6" viewBox="0 0 16 12" orient="auto" markerUnits="userSpaceOnUse"><path id="SvgjsPath1107" d="M0,2 L14,6 L0,11 L0,2" fill="#323232" stroke="#323232" stroke-width="2"></path></marker><marker id="SvgjsMarker1130" markerWidth="16" markerHeight="12" refX="16" refY="6" viewBox="0 0 16 12" orient="auto" markerUnits="userSpaceOnUse"><path id="SvgjsPath1131" d="M0,2 L14,6 L0,11 L0,2" fill="#323232" stroke="#323232" stroke-width="2"></path></marker><marker id="SvgjsMarker1134" markerWidth="16" markerHeight="12" refX="16" refY="6" viewBox="0 0 16 12" orient="auto" markerUnits="userSpaceOnUse"><path id="SvgjsPath1135" d="M0,2 L14,6 L0,11 L0,2" fill="#323232" stroke="#323232" stroke-width="2"></path></marker><marker id="SvgjsMarker1138" markerWidth="16" markerHeight="12" refX="16" refY="6" viewBox="0 0 16 12" orient="auto" markerUnits="userSpaceOnUse"><path id="SvgjsPath1139" d="M0,2 L14,6 L0,11 L0,2" fill="#323232" stroke="#323232" stroke-width="2"></path></marker><marker id="SvgjsMarker1166" markerWidth="16" markerHeight="12" refX="16" refY="6" viewBox="0 0 16 12" orient="auto" markerUnits="userSpaceOnUse"><path id="SvgjsPath1167" d="M0,2 L14,6 L0,11 L0,2" fill="#323232" stroke="#323232" stroke-width="2"></path></marker><marker id="SvgjsMarker1262" markerWidth="16" markerHeight="12" refX="16" refY="6" viewBox="0 0 16 12" orient="auto" markerUnits="userSpaceOnUse"><path id="SvgjsPath1263" d="M0,2 L14,6 L0,11 L0,2" fill="#323232" stroke="#323232" stroke-width="2"></path></marker><marker id="SvgjsMarker1292" markerWidth="16" markerHeight="12" refX="16" refY="6" viewBox="0 0 16 12" orient="auto" markerUnits="userSpaceOnUse"><path id="SvgjsPath1293" d="M0,2 L14,6 L0,11 L0,2" fill="#323232" stroke="#323232" stroke-width="2"></path></marker><marker id="SvgjsMarker1302" markerWidth="16" markerHeight="12" refX="16" refY="6" viewBox="0 0 16 12" orient="auto" markerUnits="userSpaceOnUse"><path id="SvgjsPath1303" d="M0,2 L14,6 L0,11 L0,2" fill="#323232" stroke="#323232" stroke-width="2"></path></marker><marker id="SvgjsMarker1306" markerWidth="16" markerHeight="12" refX="16" refY="6" viewBox="0 0 16 12" orient="auto" markerUnits="userSpaceOnUse"><path id="SvgjsPath1307" d="M0,2 L14,6 L0,11 L0,2" fill="#323232" stroke="#323232" stroke-width="2"></path></marker></defs><g id="SvgjsG1008" transform="translate(199.5,25)"><path id="SvgjsPath1009" d="M 0 0L 139 0L 139 74L 0 74Z" stroke="#323232" stroke-width="2" fill-opacity="1" fill="#ffe6cc"></path><g id="SvgjsG1010"><text id="SvgjsText1011" font-family="微软雅黑" text-anchor="middle" font-size="15px" width="117" fill="#323232" font-weight="400" align="middle" anchor="middle" family="微软雅黑" size="15px" weight="400" font-style="" y="15.75" transform="rotate(0)"><tspan id="SvgjsTspan1012" dy="18" x="69.5"><tspan id="SvgjsTspan1013" style="text-decoration:;">服务A</tspan></tspan><tspan id="SvgjsTspan1014" dy="18" x="69.5"><tspan id="SvgjsTspan1015" style="text-decoration:;">（Phoenix服务）</tspan></tspan></text></g></g><g id="SvgjsG1016" transform="translate(363.5,25)"><path id="SvgjsPath1017" d="M 0 0L 139 0L 139 74L 0 74Z" stroke="#323232" stroke-width="2" fill-opacity="1" fill="#ffe6cc"></path><g id="SvgjsG1018"><text id="SvgjsText1019" font-family="微软雅黑" text-anchor="middle" font-size="15px" width="117" fill="#323232" font-weight="400" align="middle" anchor="middle" family="微软雅黑" size="15px" weight="400" font-style="" y="15.75" transform="rotate(0)"><tspan id="SvgjsTspan1020" dy="18" x="69.5"><tspan id="SvgjsTspan1021" style="text-decoration:;">服务B</tspan></tspan><tspan id="SvgjsTspan1022" dy="18" x="69.5"><tspan id="SvgjsTspan1023" style="text-decoration:;">（Phoenix服务）</tspan></tspan></text></g></g><g id="SvgjsG1024" transform="translate(35.5,25)"><path id="SvgjsPath1025" d="M 0 0L 139 0L 139 74L 0 74Z" stroke="#323232" stroke-width="2" fill-opacity="1" fill="#ffe6cc"></path><g id="SvgjsG1026"><text id="SvgjsText1027" font-family="微软雅黑" text-anchor="middle" font-size="15px" width="117" fill="#323232" font-weight="400" align="middle" anchor="middle" family="微软雅黑" size="15px" weight="400" font-style="" y="15.75" transform="rotate(0)"><tspan id="SvgjsTspan1028" dy="18" x="69.5"><tspan id="SvgjsTspan1029" style="text-decoration:;">服务C</tspan></tspan><tspan id="SvgjsTspan1030" dy="18" x="69.5"><tspan id="SvgjsTspan1031" style="text-decoration:;">（Phoenix服务）</tspan></tspan></text></g></g><g id="SvgjsG1032" transform="matrix(-1.8369701465288538e-16,-1,1,-1.8369701465288538e-16,297,274.5)"><path id="SvgjsPath1033" d="M 12.9 0L 68.16666666666667 0C 90.86363636363636 0 90.86363636363636 107 68.16666666666667 107L 12.9 107C -4.3 107 -4.3 0 12.9 0ZM 68.16666666666667 0C 45.875 0 45.875 107 68.16666666666667 107C 45.875 107 45.875 0 68.16666666666667 0" stroke="#323232" stroke-width="2" fill-opacity="1" fill="#ccffcc"></path><g id="SvgjsG1034"><text id="SvgjsText1035" font-family="微软雅黑" text-anchor="middle" font-size="15px" width="0" fill="#323232" font-weight="400" align="middle" anchor="middle" family="微软雅黑" size="15px" weight="400" font-style="" y="51.25" transform="rotate(0)"></text></g></g><g id="SvgjsG1036"><path id="SvgjsPath1037" d="M269 99C 269 147.41900453334415 350.5 140.08099546665585 350.5 188.5" stroke="#323232" stroke-width="2" fill="none" marker-end="url(#SvgjsMarker1038)"></path></g><g id="SvgjsG1040"><path id="SvgjsPath1041" d="M433 99C 433 147.68921851909312 350.5 139.81078148090688 350.5 188.5" stroke="#323232" stroke-width="2" fill="none" marker-end="url(#SvgjsMarker1042)"></path></g><g id="SvgjsG1044" transform="translate(270.5,224)"><path id="SvgjsPath1045" d="M 0 0L 160 0L 160 40L 0 40Z" stroke="none" fill="none"></path><g id="SvgjsG1046"><text id="SvgjsText1047" font-family="微软雅黑" text-anchor="middle" font-size="15px" width="95" fill="#323232" font-weight="400" align="middle" anchor="middle" family="微软雅黑" size="15px" weight="400" font-style="" y="8.25" transform="rotate(0)"><tspan id="SvgjsTspan1048" dy="18" x="80"><tspan id="SvgjsTspan1049" style="text-decoration:;">EventStore-A</tspan></tspan></text></g></g><g id="SvgjsG1050" transform="matrix(-1.8369701465288538e-16,-1,1,-1.8369701465288538e-16,51.5,274.5)"><path id="SvgjsPath1051" d="M 12.9 0L 68.16666666666667 0C 90.86363636363636 0 90.86363636363636 107 68.16666666666667 107L 12.9 107C -4.3 107 -4.3 0 12.9 0ZM 68.16666666666667 0C 45.875 0 45.875 107 68.16666666666667 107C 45.875 107 45.875 0 68.16666666666667 0" stroke="#323232" stroke-width="2" fill-opacity="1" fill="#ccffcc"></path><g id="SvgjsG1052"><text id="SvgjsText1053" font-family="微软雅黑" text-anchor="middle" font-size="15px" width="0" fill="#323232" font-weight="400" align="middle" anchor="middle" family="微软雅黑" size="15px" weight="400" font-style="" y="51.25" transform="rotate(0)"></text></g></g><g id="SvgjsG1054" transform="translate(25,224)"><path id="SvgjsPath1055" d="M 0 0L 160 0L 160 40L 0 40Z" stroke="none" fill="none"></path><g id="SvgjsG1056"><text id="SvgjsText1057" font-family="微软雅黑" text-anchor="middle" font-size="15px" width="93" fill="#323232" font-weight="400" align="middle" anchor="middle" family="微软雅黑" size="15px" weight="400" font-style="" y="8.25" transform="rotate(0)"><tspan id="SvgjsTspan1058" dy="18" x="80"><tspan id="SvgjsTspan1059" style="text-decoration:;">EventStore-B</tspan></tspan></text></g></g><g id="SvgjsG1060"><path id="SvgjsPath1061" d="M105 99C 105 134.8 105 152.7 105 188.5" stroke="#323232" stroke-width="2" fill="none" marker-end="url(#SvgjsMarker1062)"></path></g><g id="SvgjsG1064" transform="translate(289,460)"><path id="SvgjsPath1065" d="M 0 0L 123 0L 123 72L 0 72Z" stroke="#323232" stroke-width="2" fill-opacity="1" fill="#99ccff"></path><g id="SvgjsG1066"><text id="SvgjsText1067" font-family="微软雅黑" text-anchor="middle" font-size="15px" width="96" fill="#323232" font-weight="400" align="middle" anchor="middle" family="微软雅黑" size="15px" weight="400" font-style="" y="14.75" transform="rotate(0)"><tspan id="SvgjsTspan1068" dy="18" x="61.5"><tspan id="SvgjsTspan1069" style="text-decoration:;">Event Publish</tspan></tspan><tspan id="SvgjsTspan1070" dy="18" x="61.5"><tspan id="SvgjsTspan1071" style="text-decoration:;">服务</tspan></tspan></text></g></g><g id="SvgjsG1072" transform="matrix(-1.8369701465288538e-16,-1,1,-1.8369701465288538e-16,297,405.5)"><path id="SvgjsPath1073" d="M 12.9 0L 68.16666666666667 0C 90.86363636363636 0 90.86363636363636 107 68.16666666666667 107L 12.9 107C -4.3 107 -4.3 0 12.9 0ZM 68.16666666666667 0C 45.875 0 45.875 107 68.16666666666667 107C 45.875 107 45.875 0 68.16666666666667 0" stroke="#323232" stroke-width="2" fill-opacity="1" fill="#ccffcc"></path><g id="SvgjsG1074"><text id="SvgjsText1075" font-family="微软雅黑" text-anchor="middle" font-size="15px" width="0" fill="#323232" font-weight="400" align="middle" anchor="middle" family="微软雅黑" size="15px" weight="400" font-style="" y="51.25" transform="rotate(0)"></text></g></g><g id="SvgjsG1076" transform="translate(270.5,355)"><path id="SvgjsPath1077" d="M 0 0L 160 0L 160 40L 0 40Z" stroke="none" fill="none"></path><g id="SvgjsG1078"><text id="SvgjsText1079" font-family="微软雅黑" text-anchor="middle" font-size="15px" width="95" fill="#323232" font-weight="400" align="middle" anchor="middle" family="微软雅黑" size="15px" weight="400" font-style="" y="8.25" transform="rotate(0)"><tspan id="SvgjsTspan1080" dy="18" x="80"><tspan id="SvgjsTspan1081" style="text-decoration:;">EventStore-A</tspan></tspan></text></g></g><g id="SvgjsG1082"><path id="SvgjsPath1083" d="M350.5 274.5C 350.5 292.5 350.5 301.5 350.5 319.5" stroke="#323232" stroke-width="2" fill="none" marker-end="url(#SvgjsMarker1084)"></path><rect id="SvgjsRect1086" width="21" height="19" x="340" y="287.5" fill="#ffffff"></rect><text id="SvgjsText1089" font-family="微软雅黑" text-anchor="middle" font-size="15px" width="21" fill="#323232" font-weight="400" align="top" anchor="middle" family="微软雅黑" size="15px" weight="400" font-style="" y="285.25" transform="rotate(0)"><tspan id="SvgjsTspan1090" dy="18" x="350.5"><tspan id="SvgjsTspan1091" style="text-decoration:;">1.1</tspan></tspan></text></g><g id="SvgjsG1092" transform="translate(191.5,224)"><path id="SvgjsPath1093" d="M 0 0L 160 0L 160 40L 0 40Z" stroke="none" fill="none"></path><g id="SvgjsG1094"><text id="SvgjsText1095" font-family="微软雅黑" text-anchor="middle" font-size="15px" width="30" fill="#323232" font-weight="400" align="middle" anchor="middle" family="微软雅黑" size="15px" weight="400" font-style="" y="8.25" transform="rotate(0)"><tspan id="SvgjsTspan1096" dy="18" x="80"><tspan id="SvgjsTspan1097" style="text-decoration:;">写库</tspan></tspan></text></g></g><g id="SvgjsG1098" transform="translate(191.5,355)"><path id="SvgjsPath1099" d="M 0 0L 160 0L 160 40L 0 40Z" stroke="none" fill="none"></path><g id="SvgjsG1100"><text id="SvgjsText1101" font-family="微软雅黑" text-anchor="middle" font-size="15px" width="30" fill="#323232" font-weight="400" align="middle" anchor="middle" family="微软雅黑" size="15px" weight="400" font-style="" y="8.25" transform="rotate(0)"><tspan id="SvgjsTspan1102" dy="18" x="80"><tspan id="SvgjsTspan1103" style="text-decoration:;">读库</tspan></tspan></text></g></g><g id="SvgjsG1104"><path id="SvgjsPath1105" d="M350.5 405.5C 350.5 427.29999999999995 350.5 438.20000000000005 350.5 460" stroke="#323232" stroke-width="2" fill="none" marker-end="url(#SvgjsMarker1106)"></path><rect id="SvgjsRect1108" width="21" height="19" x="340" y="423.25" fill="#ffffff"></rect><text id="SvgjsText1111" font-family="微软雅黑" text-anchor="middle" font-size="15px" width="21" fill="#323232" font-weight="400" align="top" anchor="middle" family="微软雅黑" size="15px" weight="400" font-style="" y="421" transform="rotate(0)"><tspan id="SvgjsTspan1112" dy="18" x="350.5"><tspan id="SvgjsTspan1113" style="text-decoration:;">1.2</tspan></tspan></text></g><g id="SvgjsG1114" transform="matrix(-1,1.2246468525851679e-16,-1.2246468525851679e-16,-1,629.5,638)"><path id="SvgjsPath1115" d="M 19.65 0L 123.66666666666667 0C 133 0 133 44 123.66666666666667 44L 19.65 44C -6.550000000000001 44 -6.550000000000001 0 19.65 0ZM 123.66666666666667 0C 114.5 0 114.5 44 123.66666666666667 44C 114.5 44 114.5 0 123.66666666666667 0" stroke="#323232" stroke-width="2" fill-opacity="1" fill="#ccccff"></path><g id="SvgjsG1116"><text id="SvgjsText1117" font-family="微软雅黑" text-anchor="middle" font-size="15px" width="0.0166667" fill="#323232" font-weight="400" align="middle" anchor="middle" family="微软雅黑" size="15px" weight="400" font-style="" y="10.25" transform="rotate(0)"><tspan id="SvgjsTspan1118" dy="18" x="52.5"><tspan id="SvgjsTspan1119" style="text-decoration:;"> </tspan></tspan></text></g></g><g id="SvgjsG1120" transform="matrix(-1,1.2246468525851679e-16,-1.2246468525851679e-16,-1,629.5,699)"><path id="SvgjsPath1121" d="M 19.65 0L 123.66666666666667 0C 133 0 133 44 123.66666666666667 44L 19.65 44C -6.550000000000001 44 -6.550000000000001 0 19.65 0ZM 123.66666666666667 0C 114.5 0 114.5 44 123.66666666666667 44C 114.5 44 114.5 0 123.66666666666667 0" stroke="#323232" stroke-width="2" fill-opacity="1" fill="#ccccff"></path><g id="SvgjsG1122"><text id="SvgjsText1123" font-family="微软雅黑" text-anchor="middle" font-size="15px" width="0" fill="#323232" font-weight="400" align="middle" anchor="middle" family="微软雅黑" size="15px" weight="400" font-style="" y="19.75" transform="rotate(0)"></text></g></g><g id="SvgjsG1124" transform="matrix(-1,1.2246468525851679e-16,-1.2246468525851679e-16,-1,629.5,761)"><path id="SvgjsPath1125" d="M 19.65 0L 123.66666666666667 0C 133 0 133 44 123.66666666666667 44L 19.65 44C -6.550000000000001 44 -6.550000000000001 0 19.65 0ZM 123.66666666666667 0C 114.5 0 114.5 44 123.66666666666667 44C 114.5 44 114.5 0 123.66666666666667 0" stroke="#323232" stroke-width="2" fill-opacity="1" fill="#ccccff"></path><g id="SvgjsG1126"><text id="SvgjsText1127" font-family="微软雅黑" text-anchor="middle" font-size="15px" width="0" fill="#323232" font-weight="400" align="middle" anchor="middle" family="微软雅黑" size="15px" weight="400" font-style="" y="19.75" transform="rotate(0)"></text></g></g><g id="SvgjsG1128"><path id="SvgjsPath1129" d="M350.5 532C 350.5 600.0705516357845 430.68847736425107 621.9327394870596 498.5 616" stroke="#323232" stroke-width="2" fill="none" marker-end="url(#SvgjsMarker1130)"></path></g><g id="SvgjsG1132"><path id="SvgjsPath1133" d="M350.5 532C 350.5 614.8772586419218 415.9381143485392 684.2232290338264 498.5 677" stroke="#323232" stroke-width="2" fill="none" marker-end="url(#SvgjsMarker1134)"></path></g><g id="SvgjsG1136"><path id="SvgjsPath1137" d="M350.5 532C 350.5 633.7864431051602 397.10088504102237 747.8712730504725 498.5 739" stroke="#323232" stroke-width="2" fill="none" marker-end="url(#SvgjsMarker1138)"></path></g><g id="SvgjsG1140" transform="translate(506.25,596)"><path id="SvgjsPath1141" d="M 0 0L 115.5 0L 115.5 40L 0 40Z" stroke="none" fill="none"></path><g id="SvgjsG1142"><text id="SvgjsText1143" font-family="微软雅黑" text-anchor="middle" font-size="15px" width="52" fill="#323232" font-weight="400" align="middle" anchor="middle" family="微软雅黑" size="15px" weight="400" font-style="" y="8.25" transform="rotate(0)"><tspan id="SvgjsTspan1144" dy="18" x="58"><tspan id="SvgjsTspan1145" style="text-decoration:;">topic-1</tspan></tspan></text></g></g><g id="SvgjsG1146" transform="translate(507,655)"><path id="SvgjsPath1147" d="M 0 0L 114 0L 114 40L 0 40Z" stroke="none" fill="none"></path><g id="SvgjsG1148"><text id="SvgjsText1149" font-family="微软雅黑" text-anchor="middle" font-size="15px" width="52" fill="#323232" font-weight="400" align="middle" anchor="middle" family="微软雅黑" size="15px" weight="400" font-style="" y="8.25" transform="rotate(0)"><tspan id="SvgjsTspan1150" dy="18" x="57"><tspan id="SvgjsTspan1151" style="text-decoration:;">topic-2</tspan></tspan></text></g></g><g id="SvgjsG1152" transform="translate(506.25,719)"><path id="SvgjsPath1153" d="M 0 0L 115.5 0L 115.5 40L 0 40Z" stroke="none" fill="none"></path><g id="SvgjsG1154"><text id="SvgjsText1155" font-family="微软雅黑" text-anchor="middle" font-size="15px" width="52" fill="#323232" font-weight="400" align="middle" anchor="middle" family="微软雅黑" size="15px" weight="400" font-style="" y="8.25" transform="rotate(0)"><tspan id="SvgjsTspan1156" dy="18" x="58"><tspan id="SvgjsTspan1157" style="text-decoration:;">topic-3</tspan></tspan></text></g></g><g id="SvgjsG1158" transform="translate(484,547)"><path id="SvgjsPath1159" d="M 0 0L 160 0L 160 40L 0 40Z" stroke="none" fill="none"></path><g id="SvgjsG1160"><text id="SvgjsText1161" font-family="微软雅黑" text-anchor="middle" font-size="15px" width="39" fill="#323232" font-weight="400" align="middle" anchor="middle" family="微软雅黑" size="15px" weight="400" font-style="" y="8.25" transform="rotate(0)"><tspan id="SvgjsTspan1162" dy="18" x="80"><tspan id="SvgjsTspan1163" style="text-decoration:;">Kafka</tspan></tspan></text></g></g><g id="SvgjsG1164"><path id="SvgjsPath1165" d="M350.5 274.5C 147.5 361 197.0482735344246 496 289 496" stroke="#323232" stroke-width="2" fill="none" marker-end="url(#SvgjsMarker1166)"></path><rect id="SvgjsRect1168" width="21" height="19" x="198.64310257540922" y="408.1875" fill="#ffffff"></rect><text id="SvgjsText1171" font-family="微软雅黑" text-anchor="middle" font-size="15px" width="21" fill="#323232" font-weight="400" align="top" anchor="middle" family="微软雅黑" size="15px" weight="400" font-style="" y="405.9375" transform="rotate(0)"><tspan id="SvgjsTspan1172" dy="18" x="209.14310257540922"><tspan id="SvgjsTspan1173" style="text-decoration:;">2.1</tspan></tspan></text></g><g id="SvgjsG1174" transform="translate(572.5,173)"><path id="SvgjsPath1175" d="M 0 0L 477 0L 477 236L 0 236Z" stroke-dasharray="3,4" stroke="#323232" stroke-width="2" fill-opacity="1" fill="#ffffff"></path><g id="SvgjsG1176"><text id="SvgjsText1177" font-family="微软雅黑" text-anchor="middle" font-size="15px" width="0" fill="#323232" font-weight="400" align="middle" anchor="middle" family="微软雅黑" size="15px" weight="400" font-style="" y="115.75" transform="rotate(0)"></text></g></g><g id="SvgjsG1178"><path id="SvgjsPath1179" d="M412 496C 516.1424025073361 496 468.3575974926639 291 572.5 291" stroke-dasharray="3,3" stroke="#323232" stroke-width="2" fill="none"></path></g><g id="SvgjsG1180" transform="translate(604.5,215)"><path id="SvgjsPath1181" d="M 0 0L 129 0L 129 70L 0 70Z" stroke="#323232" stroke-width="2" fill-opacity="1" fill="#cce5ff"></path><g id="SvgjsG1182"><text id="SvgjsText1183" font-family="微软雅黑" text-anchor="middle" font-size="15px" width="92" fill="#323232" font-weight="400" align="middle" anchor="middle" family="微软雅黑" size="15px" weight="400" font-style="" y="13.75" transform="rotate(0)"><tspan id="SvgjsTspan1184" dy="18" x="64.5"><tspan id="SvgjsTspan1185" style="text-decoration:;">EventPublish</tspan></tspan><tspan id="SvgjsTspan1186" dy="18" x="64.5"><tspan id="SvgjsTspan1187" style="text-decoration:;">服务1</tspan></tspan></text></g></g><g id="SvgjsG1188" transform="translate(750.5,215)"><path id="SvgjsPath1189" d="M 0 0L 129 0L 129 70L 0 70Z" stroke="#323232" stroke-width="2" fill-opacity="1" fill="#cce5ff"></path><g id="SvgjsG1190"><text id="SvgjsText1191" font-family="微软雅黑" text-anchor="middle" font-size="15px" width="92" fill="#323232" font-weight="400" align="middle" anchor="middle" family="微软雅黑" size="15px" weight="400" font-style="" y="13.75" transform="rotate(0)"><tspan id="SvgjsTspan1192" dy="18" x="64.5"><tspan id="SvgjsTspan1193" style="text-decoration:;">EventPublish</tspan></tspan><tspan id="SvgjsTspan1194" dy="18" x="64.5"><tspan id="SvgjsTspan1195" style="text-decoration:;">服务2</tspan></tspan></text></g></g><g id="SvgjsG1196" transform="translate(896.5,215)"><path id="SvgjsPath1197" d="M 0 0L 128 0L 128 70L 0 70Z" stroke="#323232" stroke-width="2" fill-opacity="1" fill="#cce5ff"></path><g id="SvgjsG1198"><text id="SvgjsText1199" font-family="微软雅黑" text-anchor="middle" font-size="15px" width="92" fill="#323232" font-weight="400" align="middle" anchor="middle" family="微软雅黑" size="15px" weight="400" font-style="" y="13.75" transform="rotate(0)"><tspan id="SvgjsTspan1200" dy="18" x="64"><tspan id="SvgjsTspan1201" style="text-decoration:;">EventPublish</tspan></tspan><tspan id="SvgjsTspan1202" dy="18" x="64"><tspan id="SvgjsTspan1203" style="text-decoration:;">服务3</tspan></tspan></text></g></g><g id="SvgjsG1204" transform="translate(585,175)"><path id="SvgjsPath1205" d="M 0 0L 160 0L 160 40L 0 40Z" stroke="none" fill="none"></path><g id="SvgjsG1206"><text id="SvgjsText1207" font-family="微软雅黑" text-anchor="middle" font-size="15px" width="138" fill="#323232" font-weight="400" align="middle" anchor="middle" family="微软雅黑" size="15px" weight="400" font-style="" y="8.25" transform="rotate(0)"><tspan id="SvgjsTspan1208" dy="18" x="80"><tspan id="SvgjsTspan1209" style="text-decoration:;">Akka Sharding 集群</tspan></tspan></text></g></g><g id="SvgjsG1210" transform="translate(589.5,333)"><path id="SvgjsPath1211" d="M 0 0L 88.5 0L 88.5 50L 0 50Z" stroke="#323232" stroke-width="2" fill-opacity="1" fill="#ccffff"></path><g id="SvgjsG1212"><text id="SvgjsText1213" font-family="微软雅黑" text-anchor="middle" font-size="15px" width="49" fill="#323232" font-weight="400" align="middle" anchor="middle" family="微软雅黑" size="15px" weight="400" font-style="" y="3.75" transform="rotate(0)"><tspan id="SvgjsTspan1214" dy="18" x="44.5"><tspan id="SvgjsTspan1215" style="text-decoration:;">task-1</tspan></tspan><tspan id="SvgjsTspan1216" dy="18" x="44.5"><tspan id="SvgjsTspan1217" style="text-decoration:;">(Actor)</tspan></tspan></text></g></g><g id="SvgjsG1218" transform="translate(696,333)"><path id="SvgjsPath1219" d="M 0 0L 88.5 0L 88.5 50L 0 50Z" stroke="#323232" stroke-width="2" fill-opacity="1" fill="#ccffff"></path><g id="SvgjsG1220"><text id="SvgjsText1221" font-family="微软雅黑" text-anchor="middle" font-size="15px" width="49" fill="#323232" font-weight="400" align="middle" anchor="middle" family="微软雅黑" size="15px" weight="400" font-style="" y="3.75" transform="rotate(0)"><tspan id="SvgjsTspan1222" dy="18" x="44.5"><tspan id="SvgjsTspan1223" style="text-decoration:;">task-2 </tspan></tspan><tspan id="SvgjsTspan1224" dy="18" x="44.5"><tspan id="SvgjsTspan1225" style="text-decoration:;">(Actor)</tspan></tspan></text></g></g><g id="SvgjsG1226" transform="translate(804,333)"><path id="SvgjsPath1227" d="M 0 0L 88.5 0L 88.5 50L 0 50Z" stroke="#323232" stroke-width="2" fill-opacity="1" fill="#ccffff"></path><g id="SvgjsG1228"><text id="SvgjsText1229" font-family="微软雅黑" text-anchor="middle" font-size="15px" width="49" fill="#323232" font-weight="400" align="middle" anchor="middle" family="微软雅黑" size="15px" weight="400" font-style="" y="3.75" transform="rotate(0)"><tspan id="SvgjsTspan1230" dy="18" x="44.5"><tspan id="SvgjsTspan1231" style="text-decoration:;">task-3</tspan></tspan><tspan id="SvgjsTspan1232" dy="18" x="44.5"><tspan id="SvgjsTspan1233" style="text-decoration:;">(Actor)</tspan></tspan></text></g></g><g id="SvgjsG1234"><path id="SvgjsPath1235" d="M669 285C 669 308.8212090373264 633.75 309.1787909626736 633.75 333" stroke="#323232" stroke-width="2" fill="none"></path></g><g id="SvgjsG1236"><path id="SvgjsPath1237" d="M669 285C 669 319.3640800837153 740.25 298.6359199162847 740.25 333" stroke="#323232" stroke-width="2" fill="none"></path></g><g id="SvgjsG1238"><path id="SvgjsPath1239" d="M815 285C 815 308.3565836542933 848.25 309.6434163457067 848.25 333" stroke="#323232" stroke-width="2" fill="none"></path></g><g id="SvgjsG1240" transform="translate(916.25,333)"><path id="SvgjsPath1241" d="M 0 0L 88.5 0L 88.5 50L 0 50Z" stroke="#323232" stroke-width="2" fill-opacity="1" fill="#ccffff"></path><g id="SvgjsG1242"><text id="SvgjsText1243" font-family="微软雅黑" text-anchor="middle" font-size="15px" width="49" fill="#323232" font-weight="400" align="middle" anchor="middle" family="微软雅黑" size="15px" weight="400" font-style="" y="3.75" transform="rotate(0)"><tspan id="SvgjsTspan1244" dy="18" x="44.5"><tspan id="SvgjsTspan1245" style="text-decoration:;">task-4</tspan></tspan><tspan id="SvgjsTspan1246" dy="18" x="44.5"><tspan id="SvgjsTspan1247" style="text-decoration:;">(Actor)</tspan></tspan></text></g></g><g id="SvgjsG1248"><path id="SvgjsPath1249" d="M960.5 285C 960.5 304.2 960.5 313.8 960.5 333" stroke="#323232" stroke-width="2" fill="none"></path></g><g id="SvgjsG1250" transform="matrix(-1,1.2246468525851679e-16,-1.2246468525851679e-16,-1,629.5,824)"><path id="SvgjsPath1251" d="M 19.65 0L 123.66666666666667 0C 133 0 133 44 123.66666666666667 44L 19.65 44C -6.550000000000001 44 -6.550000000000001 0 19.65 0ZM 123.66666666666667 0C 114.5 0 114.5 44 123.66666666666667 44C 114.5 44 114.5 0 123.66666666666667 0" stroke="#323232" stroke-width="2" fill-opacity="1" fill="#ccccff"></path><g id="SvgjsG1252"><text id="SvgjsText1253" font-family="微软雅黑" text-anchor="middle" font-size="15px" width="0" fill="#323232" font-weight="400" align="middle" anchor="middle" family="微软雅黑" size="15px" weight="400" font-style="" y="19.75" transform="rotate(0)"></text></g></g><g id="SvgjsG1254" transform="translate(503.75,782)"><path id="SvgjsPath1255" d="M 0 0L 120.5 0L 120.5 40L 0 40Z" stroke="none" fill="none"></path><g id="SvgjsG1256"><text id="SvgjsText1257" font-family="微软雅黑" text-anchor="middle" font-size="15px" width="52" fill="#323232" font-weight="400" align="middle" anchor="middle" family="微软雅黑" size="15px" weight="400" font-style="" y="8.25" transform="rotate(0)"><tspan id="SvgjsTspan1258" dy="18" x="60.5"><tspan id="SvgjsTspan1259" style="text-decoration:;">topic-4</tspan></tspan></text></g></g><g id="SvgjsG1260"><path id="SvgjsPath1261" d="M350.5 532C 350.5 655.1610327985277 375.80763211460317 812.7341912911244 498.5 802" stroke="#323232" stroke-width="2" fill="none" marker-end="url(#SvgjsMarker1262)"></path></g><g id="SvgjsG1264" transform="translate(687,441)"><path id="SvgjsPath1265" d="M 0 0L 408 0L 408 214L 0 214Z" stroke-dasharray="3,4" stroke="#323232" stroke-width="2" fill-opacity="1" fill="#ffffff"></path><g id="SvgjsG1266"><text id="SvgjsText1267" font-family="微软雅黑" text-anchor="start" font-size="15px" width="231" fill="#323232" font-weight="400" align="middle" anchor="start" family="微软雅黑" size="15px" weight="400" font-style="" y="38.25" transform="rotate(0)"><tspan id="SvgjsTspan1268" dy="18" x="10"><tspan id="SvgjsTspan1269" style="text-decoration:;">1. stream-1订阅的领域事件类型：</tspan></tspan><tspan id="SvgjsTspan1270" dy="18" x="10"><tspan id="SvgjsTspan1271" style="text-decoration:;">Account, Order, Execution</tspan></tspan><tspan id="SvgjsTspan1272" dy="18" x="10"><tspan id="SvgjsTspan1273" style="text-decoration:;"> </tspan></tspan><tspan id="SvgjsTspan1274" dy="18" x="10"><tspan id="SvgjsTspan1275" style="text-decoration:;">2. stream-2订阅的领域事件类型：</tspan></tspan><tspan id="SvgjsTspan1276" dy="18" x="10"><tspan id="SvgjsTspan1277" style="text-decoration:;">Order</tspan></tspan><tspan id="SvgjsTspan1278" dy="18" x="10"><tspan id="SvgjsTspan1279" style="text-decoration:;"> </tspan></tspan><tspan id="SvgjsTspan1280" dy="18" x="10"><tspan id="SvgjsTspan1281" style="text-decoration:;">3. ...</tspan></tspan></text></g></g><g id="SvgjsG1282"><path id="SvgjsPath1283" d="M629.5 616C 664.5796207573428 622.1854836125402 651.3792195481345 548 687 548" stroke-dasharray="3,3" stroke="#323232" stroke-width="2" fill="none"></path></g><g id="SvgjsG1284" transform="translate(711.5,675)"><path id="SvgjsPath1285" d="M 0 0L 145 0L 145 71L 0 71Z" stroke="#323232" stroke-width="2" fill-opacity="1" fill="#ffcccc"></path><g id="SvgjsG1286"><text id="SvgjsText1287" font-family="微软雅黑" text-anchor="middle" font-size="13px" width="117" fill="#323232" font-weight="400" align="middle" anchor="middle" family="微软雅黑" size="13px" weight="400" font-style="" y="25.55" transform="rotate(0)"><tspan id="SvgjsTspan1288" dy="16" x="72.5"><tspan id="SvgjsTspan1289" style="text-decoration:;">订阅事件流的服务-1</tspan></tspan></text></g></g><g id="SvgjsG1290"><path id="SvgjsPath1291" d="M629.5 677C 664.3933383050019 683.1526369901601 676.0683757075689 710.5 711.5 710.5" stroke="#323232" stroke-width="2" fill="none" marker-end="url(#SvgjsMarker1292)"></path></g><g id="SvgjsG1294" transform="translate(711.5,766.5)"><path id="SvgjsPath1295" d="M 0 0L 145 0L 145 71L 0 71Z" stroke="#323232" stroke-width="2" fill-opacity="1" fill="#ffcccc"></path><g id="SvgjsG1296"><text id="SvgjsText1297" font-family="微软雅黑" text-anchor="middle" font-size="13px" width="117" fill="#323232" font-weight="400" align="middle" anchor="middle" family="微软雅黑" size="13px" weight="400" font-style="" y="25.55" transform="rotate(0)"><tspan id="SvgjsTspan1298" dy="16" x="72.5"><tspan id="SvgjsTspan1299" style="text-decoration:;">订阅事件流的服务-2</tspan></tspan></text></g></g><g id="SvgjsG1300"><path id="SvgjsPath1301" d="M629.5 739C 670.2343915570749 746.1825722742554 670.1372147939721 802 711.5 802" stroke="#323232" stroke-width="2" fill="none" marker-end="url(#SvgjsMarker1302)"></path></g><g id="SvgjsG1304"><path id="SvgjsPath1305" d="M629.5 802C 661.8016942988004 807.6956602274753 678.7 802 711.5 802" stroke="#323232" stroke-width="2" fill="none" marker-end="url(#SvgjsMarker1306)"></path></g></svg>